<svg class="logo" xmlns="http://www.w3.org/2000/svg" xmlns:xlink="http://www.w3.org/1999/xlink" viewBox="0 0 512 512">
      <defs>
        <linearGradient id="lg1" y1="0.5" x2="1" y2="0.5" gradientUnits="objectBoundingBox"><stop offset="0" stop-color="#ca9a00"/><stop offset="1" stop-color="#cc9900"/></linearGradient>
        <linearGradient id="lg3" x1="0" y1="0.5" x2="1" y2="0.5" xlink:href="#lg1"/>
        <clipPath id="cp"><rect width="512" height="512"/></clipPath>
      </defs>
      <g clip-path="url(#cp)"><g transform="translate(-202.469 -205.77)">
        <path d="M455.87,485.651l.039-5.03a31.4,31.4,0,0,1-3.926-1.766l-.063,7.388,2.744,8.689-2.633,2.184-.079,3.453-1.845,1.277-1.861,1.7-3.5-.686-3.043,2.831-3.777,3.327-.6,4.526-2.681,2.365-6.812,6.654-8.823,4.273-5.874,5.07-4.163-13.774-7.75-15.335-4.447-14.515,10.281-12.9a12.761,12.761,0,0,1-1.648.118,13.219,13.219,0,0,1-3.169-.394l-9.84,12.347,5.1,16.668,7.75,15.319,5.866,19.411,10.076-8.689,8.933-4.329,7.167-6.993,3.745-3.3.6-4.526,2.7-2.381,1.608-1.5,3.5.686,3.012-2.8,3.382-2.342.087-3.666,3.288-2.728-3.351-10.62Z" transform="translate(-17.333 -40.48)" fill="#c90"/>
        <g transform="translate(337.655 539.346)">
          <path d="M358.556,639.494l4.344,4.273,5.156-5.2-5.2-5.2-4.3,4.273L354.2,633.36l-5.093,5.2,5.2,5.2Z" transform="translate(-345.83 -633.305)" fill="#c90"/>
          <path d="M357.731,651.43a11.645,11.645,0,0,0-9.154,4.139,14.665,14.665,0,0,0-3.627,10,13.628,13.628,0,0,0,3.6,9.666,12.706,12.706,0,0,0,18.355,0,13.761,13.761,0,0,0,3.6-9.666,14.768,14.768,0,0,0-3.627-10,11.634,11.634,0,0,0-9.154-4.139ZM362,669.864a5.555,5.555,0,0,1-4.265,1.837,5.645,5.645,0,0,1-4.3-1.837,6.3,6.3,0,0,1-1.719-4.463,6.831,6.831,0,0,1,1.719-4.628,5.507,5.507,0,0,1,4.3-1.947,5.383,5.383,0,0,1,4.242,1.947,6.774,6.774,0,0,1,1.719,4.628A6.277,6.277,0,0,1,362,669.864Z" transform="translate(-344.95 -637.128)" fill="#c90"/>
          <path d="M396.5,639.124l-5.259-5.2-5.1,5.2,5.212,5.259Z" transform="translate(-353.664 -633.423)" fill="#c90"/>
          <path d="M449.338,664.374a5.489,5.489,0,0,1,1.908-4.352,7.345,7.345,0,0,1,5.022-1.672,31.264,31.264,0,0,1,7.191,1.317l1.987-6.134q-6.552-2.306-10.3-2.3a12.7,12.7,0,0,0-8.933,3.233,10.68,10.68,0,0,0-3.516,8.216,17.624,17.624,0,0,0,2.1,8.16c-.891.039-2.31.055-4.242.055h-41.7a6.665,6.665,0,0,1-3.84-1.072,4.555,4.555,0,0,1-1.908-3.312v-15.5l-7.088.875.055,25.033q0,7.451-8.216,7.451l.536,5.969q7.51,0,11.109-3.1t3.6-10.053v-1.041a7.206,7.206,0,0,0,5.74,2.413h41.7a143.573,143.573,0,0,0,26.839-2.3l1.506-7.672a141.694,141.694,0,0,1-17.661,2.081,12.3,12.3,0,0,1-1.876-6.3Z" transform="translate(-351.91 -637.039)" fill="#c90"/>
          <path d="M478.4,638.494l-5.259-5.2-5.1,5.2,5.2,5.259Z" transform="translate(-370.991 -633.29)" fill="#c90"/>
          <path d="M575.487,678.566q12.347,0,12.347-11.172V651.01l-7.088.875v13.041q0,5.972-5.2,5.968H537.121v-6.41q0-6.02-3.406-9.611a11.508,11.508,0,0,0-8.72-3.587,12.309,12.309,0,0,0-9.2,3.919,15.378,15.378,0,0,0-.213,19.7,12.014,12.014,0,0,0,9.154,3.674h5.2q-.7,3.063-4.3,4.439t-10.683,1.372l.749,5.969q20.342,0,21.359-11.779h38.429Zm-45.469-7.506q-3.217.225-4.612.221a7.477,7.477,0,0,1-5.022-1.64,5.947,5.947,0,0,1-1.908-4.762,6.135,6.135,0,0,1,1.719-4.518,5.676,5.676,0,0,1,4.187-1.727,5.368,5.368,0,0,1,4.108,1.7,6.718,6.718,0,0,1,1.53,4.66v6.079Z" transform="translate(-380.316 -637.039)" fill="#c90"/>
          <path d="M594.96,694.1l-4.131-4.108-5.149,5.2,5.2,5.259,4.076-4.163,4.195,4.163,5.148-5.259-5.2-5.2Z" transform="translate(-395.879 -645.285)" fill="#c90"/>
          <path d="M634.869,653.723a11.857,11.857,0,0,0-8.8-3.343h-5.1v7.451h3.54a6.841,6.841,0,0,1,4.723,1.616,5.35,5.35,0,0,1,1.821,4.195l.055,2.247a4.774,4.774,0,0,1-1.34,3.564,5.375,5.375,0,0,1-3.919,1.317H612.43l1.127,7.672h12.237q12.347,0,12.449-11.172l-.055-4.384q0-5.807-3.327-9.146Z" transform="translate(-401.538 -636.906)" fill="#c90"/>
          <path d="M652.67,675.23h7.135V635.24l-7.135.93Z" transform="translate(-410.051 -633.703)" fill="#c90"/>
          <path d="M673.55,651.883l.055,25.033q0,7.451-8.216,7.451l.536,5.969q7.51,0,11.109-3.1t3.6-10.053V651l-7.088.875Z" transform="translate(-412.742 -637.037)" fill="#c90"/>
        </g>
        <g transform="translate(339.13 598.842)">
          <path d="M372.823,732.308a11.25,11.25,0,0,0,1.932-6.694q0-11.614-12.812-11.614H346.82v36.56h7.388V737.33h5.929l8.641,13.766,7.632-.915-8.941-14.034a10.33,10.33,0,0,0,5.354-3.848Zm-11.582-1.372h-7.033V720.394h7.033q5.925,0,5.929,5.212c0,3.469-1.979,5.322-5.929,5.322Z" transform="translate(-346.82 -709.861)" fill="#fff"/>
          <path d="M412.671,747.343a3.328,3.328,0,0,1-.378-1.806v-9.729q0-4.9-2.988-7.553t-8.767-2.665a26.11,26.11,0,0,0-11.149,2.255l1.206,5.488a21.036,21.036,0,0,1,9-2.1q5.677,0,5.677,4.037v1.774q-3.111-.319-4.873-.323-5.677,0-8.941,2.231a7.679,7.679,0,0,0-3.264,6.8,7.4,7.4,0,0,0,2.31,5.59,8.563,8.563,0,0,0,6.181,2.208,10.394,10.394,0,0,0,8.894-4.407q1.005,4.411,6.229,4.407a13.356,13.356,0,0,0,3.871-.536V747.7a4.33,4.33,0,0,1-1.506.213,1.657,1.657,0,0,1-1.482-.568Zm-7.411-2.129a8.025,8.025,0,0,1-5.882,2.689,4.566,4.566,0,0,1-2.886-.836,2.912,2.912,0,0,1-1.08-2.444q0-3.335,5.472-3.335a22.586,22.586,0,0,1,4.368.378v3.548Z" transform="translate(-355.572 -712.313)" fill="#fff"/>
          <path d="M445.211,726.879a9.075,9.075,0,0,0-7.987-4.463,9.991,9.991,0,0,0-8.192,3.792q-3.016,3.8-3.012,10.187t3.012,10.187a9.92,9.92,0,0,0,8.192,3.792,9.039,9.039,0,0,0,7.987-4.463l.654,3.926h6.378V710.59l-7.033.915Zm-.047,15.114a7.046,7.046,0,0,1-5.574,2.744,5.356,5.356,0,0,1-4.746-2.286,12.019,12.019,0,0,1,0-12.095,5.476,5.476,0,0,1,4.746-2.286,7.305,7.305,0,0,1,5.574,2.689Z" transform="translate(-363.575 -709.139)" fill="#fff"/>
          <rect width="7.033" height="26.886" transform="translate(95.204 13.814)" fill="#fff"/>
          <path d="M465.85,713.749l4.967,5,4.778-5-4.778-5Z" transform="translate(-372.002 -708.75)" fill="#fff"/>
          <path d="M497.216,725.59q-6.587,0-10.25,4.005a15.4,15.4,0,0,0,0,19.948q3.666,4.009,10.25,4.005c4.392,0,7.75-1.34,10.195-4.029a15.335,15.335,0,0,0,0-19.9q-3.666-4.033-10.195-4.029Zm4.951,19.892a6.4,6.4,0,0,1-10.021,0,11.387,11.387,0,0,1,0-11.827,6.4,6.4,0,0,1,10.021,0,11.25,11.25,0,0,1,0,11.827Z" transform="translate(-375.694 -712.313)" fill="#fff"/>
          <path d="M560.385,743.8a12.219,12.219,0,0,1-4.423.749,9.867,9.867,0,0,1-7.735-3.248q-2.909-3.252-2.917-9.17t2.917-9.17a9.873,9.873,0,0,1,7.735-3.256,17.3,17.3,0,0,1,9.95,3.335l.852-6.883a22.869,22.869,0,0,0-11.4-2.846q-8.089,0-12.836,5.109T537.78,732.13q0,8.6,4.746,13.711t12.836,5.109a25.956,25.956,0,0,0,12.055-2.531v-16.4l-7.033.915Z" transform="translate(-387.219 -709.715)" fill="#fff"/>
          <path d="M606.041,747.343a3.328,3.328,0,0,1-.378-1.806v-9.729q0-4.9-2.988-7.553t-8.767-2.665a26.111,26.111,0,0,0-11.149,2.255l1.206,5.488a21.036,21.036,0,0,1,9-2.1q5.677,0,5.677,4.037v1.774q-3.11-.319-4.873-.323-5.677,0-8.941,2.231a7.679,7.679,0,0,0-3.264,6.8,7.4,7.4,0,0,0,2.31,5.59,8.563,8.563,0,0,0,6.181,2.208,10.394,10.394,0,0,0,8.894-4.407q1.005,4.411,6.229,4.407a13.356,13.356,0,0,0,3.871-.536V747.7a4.33,4.33,0,0,1-1.506.213,1.657,1.657,0,0,1-1.482-.568Zm-7.4-2.129a8.025,8.025,0,0,1-5.882,2.689,4.566,4.566,0,0,1-2.886-.836,2.912,2.912,0,0,1-1.08-2.444q0-3.335,5.472-3.335a22.586,22.586,0,0,1,4.368.378v3.548Z" transform="translate(-396.481 -712.313)" fill="#fff"/>
          <path d="M639.846,730.843V726.27H619.4v5.645h11.551L618.7,748.583v4.573h22.1v-5.645H627.594Z" transform="translate(-404.339 -712.457)" fill="#fff"/>
          <path d="M677.293,747.9a1.657,1.657,0,0,1-1.482-.568,3.328,3.328,0,0,1-.378-1.806V735.8q0-4.9-2.988-7.553t-8.767-2.665a26.109,26.109,0,0,0-11.149,2.255l1.206,5.488a21.037,21.037,0,0,1,9-2.1q5.677,0,5.677,4.037v1.774q-3.11-.319-4.872-.323-5.677,0-8.941,2.231a7.68,7.68,0,0,0-3.264,6.8,7.4,7.4,0,0,0,2.31,5.59,8.563,8.563,0,0,0,6.181,2.208,10.394,10.394,0,0,0,8.894-4.407q1.005,4.411,6.229,4.407a13.354,13.354,0,0,0,3.871-.536v-5.322a4.332,4.332,0,0,1-1.506.213Zm-8.894-2.689a8.025,8.025,0,0,1-5.882,2.689,4.566,4.566,0,0,1-2.886-.836,2.912,2.912,0,0,1-1.08-2.444q0-3.335,5.472-3.335a22.586,22.586,0,0,1,4.368.378v3.548Z" transform="translate(-411.242 -712.31)" fill="#fff"/>
        </g>
        <g transform="translate(529.328 323.415)">
          <path d="M636.946,335.359a4.095,4.095,0,0,0-6,5.574,109.593,109.593,0,0,1-.181,149.354,4.094,4.094,0,1,0,5.984,5.59,117.776,117.776,0,0,0,.189-160.511Z" transform="translate(-596.857 -334.053)" fill="url(#lg1)"/>
          <path d="M617.425,352.895a4.1,4.1,0,0,0-6.032,5.543A89.82,89.82,0,0,1,611.37,480.2a4.092,4.092,0,0,0,3,6.867,4.058,4.058,0,0,0,3.012-1.325,98,98,0,0,0,.031-132.852Z" transform="translate(-592.758 -337.759)" fill="url(#lg1)"/>
          <path d="M595.612,370.811a4.094,4.094,0,0,0-6.126,5.432,70.224,70.224,0,0,1-.378,93.683,4.092,4.092,0,1,0,6.079,5.48,78.416,78.416,0,0,0,.426-104.595Z" transform="translate(-588.054 -341.538)" fill="url(#lg3)"/>
        </g>
        <path d="M586.735,439.2l-6.583-.378c-1.127-.063-3.824-.2-4.936-.26a7.254,7.254,0,0,1-1.356-.118c-.307-.173-.189-.071-.378-.528l-.583-1.545c-.386-1.017-1.372-3.635-1.75-4.62-.055-.134-.158-.441-.221-.576a3.358,3.358,0,0,0-5.811-.544c-.4.639-5.117,8.57-6.891,11.559-1.845-7.435-3.445-15.438-5.212-22.865-1.317-4.447-8.026-4.683-9.721-.394-2.468,6.008-4.573,12.15-6.442,18.386,0,0-.079.268-.1.347-.465-.268-1.167-.694-1.332-.788-8.105-4.652-8.129-4.376-1.924,2.4l1.135,1.214.142.15a3.815,3.815,0,0,0,5.724-.536l.978-1.727q3.2-5.8,6.032-11.748c.11-.236.221-.481.339-.717,1.246,3.808,2.547,7.624,3.706,11.417l1.947,6.292c.071.252.3.946.363,1.183a3.964,3.964,0,0,0,3.39,3,4.056,4.056,0,0,0,4.313-2.365l.363-.741,5.763-11.85.181-.371.047-.095h0l-.031.024c-.047.032-.071.016-.039-.008a.487.487,0,0,1,.307-.055l.039.079.087.181c.118.26.781,1.553.907,1.853l1.451,2.957.725,1.482a3,3,0,0,0,.717,1.041,3.05,3.05,0,0,0,2.286.678c3.414-.173,8.87-.473,12.347-.678a.336.336,0,0,0,0-.67Z" transform="translate(-46.245 -27.943)" fill="#c90"/>
        <path d="M417.5,444.391c-1.987.489-4.108,1.167-6.063,1.829-.118-.741-.552-2.562-.67-3.256-2.026-9.28-4.3-18.694-6.733-27.879-.118-.473-.386-1.4-.5-1.861-1.53-5.969-10.147-5.645-11.283.394-1.916,9.225-3.445,19.128-4.888,28.534-1.813-5.417-4.234-12.662-4.857-14.5l-.7-2.089a4.432,4.432,0,0,0-8.436-.016c-.4,1.388-1.411,4.857-1.821,6.284-.8,2.76-2.917,10.037-3.69,12.7l-.52,1.8a142.417,142.417,0,0,0-28.029-4.668c-9.635-.528-19.687-.063-28.6,3.982a.392.392,0,0,0,.315.717c16.959-6.268,39.493-1.2,56.271,3.966a3.77,3.77,0,0,0,3.761-2.3l.781-2.223c.923-2.649,3.4-9.753,4.352-12.489.252-.725.741-2.129,1.206-3.461,1.12,3.9,2.61,9.02,3.5,12.142.654,2.263,1.687,5.89,2.326,8.113a5.069,5.069,0,0,0,8.586,1.806,5.284,5.284,0,0,0,1.222-2.555l.954-4.3c1.569-6.938,3.225-14.239,4.66-21.4.954,2.8,1.924,5.59,2.878,8.247,1.664,4.731,3.532,9.808,5.361,14.5l.4,1.033a3.82,3.82,0,0,0,5.582,2.216,67.242,67.242,0,0,0,5.022-4.589.414.414,0,0,0-.394-.686Z" transform="translate(0 -26.475)" fill="#c90"/>
        <path d="M511.2,437.64v5.393a33.714,33.714,0,0,1-33.714,33.714h0a33.714,33.714,0,0,1-33.714-33.714V437.64" transform="translate(-28.201 -32.553)" fill="#32446a"/>
        <path d="M549,340.732,537.6,332.9,525.877,321.25,500.82,352.677a31.188,31.188,0,0,1,3.674,1.711l21.722-27.241,8.728,8.673,11.543,7.955,8.791,7.7-3.193,2.917-1.845,5.015-3.777,2.728-4.076,3.382-5.842.875-4.77,3.958-11.1,10.723c0,.205.016.418.016.623v4.841l13.656-13.2,3.863-3.209,5.85-.875,4.77-3.966,4.7-3.39,1.932-5.243,5.74-5.243Z" transform="translate(-40.271 -7.929)" fill="#c90"/>
        <rect width="43.372" height="78.647" rx="21.686" transform="translate(427.601 353.003)" fill="#32446a"/>
        <path d="M509.351,412.744a7.247,7.247,0,0,0-3.54,13.569v1.813a30.292,30.292,0,0,1-26.2,29.969v-5.669a25.356,25.356,0,0,0,15.177-8.628,24.84,24.84,0,0,0,5.922-16.193V392.331a25.151,25.151,0,0,0-50.3,0v35.275a25.187,25.187,0,0,0,21.1,24.82V458.1a30.292,30.292,0,0,1-26.2-29.969v-1.735a7.243,7.243,0,1,0-6.93-.079v1.813a37.23,37.23,0,0,0,30.26,36.521,7.082,7.082,0,0,0-.118,1.238v18.789a7.035,7.035,0,0,0,2.988,5.756v6.93H452.339a3.942,3.942,0,0,0,0,7.884H498.77a3.942,3.942,0,0,0,0-7.884H479.6v-6.93a7.035,7.035,0,0,0,2.988-5.756V465.885a7.088,7.088,0,0,0-.118-1.238,37.236,37.236,0,0,0,30.26-36.521v-1.735a7.245,7.245,0,0,0-3.39-13.648Zm-52.013,11.913h14.121a3.154,3.154,0,0,0,0-6.308H457.338v-2.145h14.121a3.154,3.154,0,0,0,0-6.308H457.338v-2.145h14.121a3.154,3.154,0,0,0,0-6.308H457.338V399.3h14.121a3.154,3.154,0,0,0,0-6.308H457.338v-.646a18.207,18.207,0,0,1,6.788-14.176v4.707a3.154,3.154,0,1,0,6.307,0v-8.011a18.471,18.471,0,0,1,2.216-.5V386.15a3.154,3.154,0,1,0,6.308,0v-11.7c.583.11,1.159.252,1.727.418v8.011a3.154,3.154,0,1,0,6.307,0v-4.707a18.182,18.182,0,0,1,6.788,14.176v.646H479.658a3.154,3.154,0,0,0,0,6.308h14.121v2.145H479.658a3.154,3.154,0,0,0,0,6.308h14.121V409.9H479.658a3.154,3.154,0,0,0,0,6.308h14.121v2.145H479.658a3.154,3.154,0,0,0,0,6.308h14.121v2.957H457.33v-2.957Z" transform="translate(-26.276 -17.646)" fill="#fff"/>
        <g transform="translate(327.547 283.77)">
          <path d="M337.815,407.122c1.522,0,3.083.032,4.731.1q-.024-1.041-.024-2.081a110.939,110.939,0,0,1,197.82-69.036l8.129-6.473a121.334,121.334,0,0,0-216.34,75.517c0,.725.016,1.451.032,2.176,1.829-.118,3.706-.2,5.661-.2Z" transform="translate(-332.13 -283.77)" fill="#fff"/>
          <path d="M453.944,553.982a111.174,111.174,0,0,1-109.089-90.521,82.167,82.167,0,0,0-10.573-.741h-.1c9.453,57.58,59.559,101.654,119.764,101.654a121.328,121.328,0,0,0,91.909-42.182l-7.869-6.788A110.944,110.944,0,0,1,453.944,553.982Z" transform="translate(-332.564 -321.628)" fill="#fff"/>
        </g>
      </g></g>
    </svg>